<svg xmlns="http://www.w3.org/2000/svg" width="85.365" height="73.555" viewBox="0 0 85.365 73.555">
  <g id="Group_937" data-name="Group 937" transform="translate(-1944.342 -2693.778)">
    <path id="path2637" d="M12847.174,21225.258h68.2l10.764-10.762v-17.561l-10.764-10.764h-68.2Zm69.541,3.176H12844V21183h72.715l12.6,12.6v20.188l-12.6,12.6Z" transform="translate(-10899.659 -18461.1)" fill="#162466"/>
    <path id="path2639" d="M14201.959,21543.172a1.787,1.787,0,1,0,1.787,1.789A1.781,1.781,0,0,0,14201.959,21543.172Zm0,6.746a4.959,4.959,0,1,1,4.961-4.957A4.973,4.973,0,0,1,14201.959,21549.918Z" transform="translate(-12185.549 -18800.391)" fill="#162466"/>
    <path id="polygon2641" d="M12990,21359h54.512v-31H12990Z" transform="translate(-11038.418 -18598.906)" fill="#ff3b33"/>
    <path id="path2643" d="M13432.756,21494.07h-10.168a1.568,1.568,0,0,1-1.588-1.588v-12.895a1.569,1.569,0,0,1,1.588-1.59h10.168v3.178h-8.582v9.721h8.582Z" transform="translate(-11448.039 -18741.465)" fill="#fff"/>
    <path id="polygon2645" d="M13421,21612.125h7.439V21609H13421Z" transform="translate(-11447.039 -18865.967)" fill="#fff"/>
    <path id="path2647" d="M13720.762,21484.074a1.439,1.439,0,0,0-1.143.5,1.71,1.71,0,0,0-.494,1.143v6.445a1.432,1.432,0,0,0,.494,1.143,1.716,1.716,0,0,0,1.143.5h2.133a1.438,1.438,0,0,0,1.141-.5,1.712,1.712,0,0,0,.5-1.143v-6.445a1.443,1.443,0,0,0-.5-1.143,1.706,1.706,0,0,0-1.141-.5Zm2.133,12.9h-2.133a4.721,4.721,0,0,1-3.375-1.391,4.809,4.809,0,0,1-1.387-3.371v-6.449a4.731,4.731,0,0,1,1.387-3.371,4.812,4.812,0,0,1,3.375-1.389h2.133a4.745,4.745,0,0,1,4.762,4.76v6.449a4.831,4.831,0,0,1-4.812,4.813Z" transform="translate(-11728.406 -18744.316)" fill="#fff"/>
    <path id="path2649" d="M13134.895,21496.92h-2.133a4.716,4.716,0,0,1-3.371-1.387,4.812,4.812,0,0,1-1.391-3.375h3.174a1.434,1.434,0,0,0,.5,1.143,1.712,1.712,0,0,0,1.143.5h2.131a1.432,1.432,0,0,0,1.141-.5,1.705,1.705,0,0,0,.5-1.143,1.436,1.436,0,0,0-.5-1.139,1.7,1.7,0,0,0-1.141-.5h-2.131a4.737,4.737,0,0,1-3.375-1.387,4.81,4.81,0,0,1-1.387-3.375,4.723,4.723,0,0,1,1.387-3.371,4.819,4.819,0,0,1,3.375-1.389h2.131a4.723,4.723,0,0,1,3.373,1.389,4.8,4.8,0,0,1,1.389,3.371h-3.174a1.431,1.431,0,0,0-.5-1.139,1.706,1.706,0,0,0-1.141-.5h-2.133a1.429,1.429,0,0,0-1.141.5,1.7,1.7,0,0,0-.5,1.139,1.436,1.436,0,0,0,.5,1.143,1.713,1.713,0,0,0,1.141.494h2.133a4.728,4.728,0,0,1,3.373,1.391,4.809,4.809,0,0,1,1.389,3.371,4.73,4.73,0,0,1-1.389,3.375A4.809,4.809,0,0,1,13134.895,21496.92Z" transform="translate(-11169.572 -18744.316)" fill="#fff"/>
    <path id="path2651" d="M13828.139,20663.418h-3.174v-17.758a5.759,5.759,0,0,1,5.8-5.8h3.225a2.667,2.667,0,0,0,1.885-4.564,2.618,2.618,0,0,0-1.885-.793H13807.8a5.8,5.8,0,1,1,0-11.607h14.482a2.513,2.513,0,0,0,1.885-.793,2.622,2.622,0,0,0,.793-1.885V20616h3.174v4.217a5.759,5.759,0,0,1-5.8,5.8h-14.484a2.713,2.713,0,0,0-1.885.791,2.629,2.629,0,0,0-.793,1.885,2.712,2.712,0,0,0,.793,1.885,2.628,2.628,0,0,0,1.885.793h26.191a5.8,5.8,0,1,1,0,11.609h-3.225a2.7,2.7,0,0,0-1.885.795,2.614,2.614,0,0,0-.795,1.881Z" transform="translate(-11810.141 -17922.223)" fill="#162466"/>
  </g>
</svg>
